<mxfile host="app.diagrams.net" agent="Mozilla/5.0 (X11; Linux x86_64; rv:135.0) Gecko/20100101 Firefox/135.0" version="26.1.1">
  <diagram name="Page-1" id="XAsVF4AkMkgvic_LiaYU">
    <mxGraphModel dx="1434" dy="749" grid="1" gridSize="10" guides="1" tooltips="1" connect="1" arrows="1" fold="1" page="1" pageScale="1" pageWidth="850" pageHeight="1100" math="0" shadow="0">
      <root>
        <mxCell id="0" />
        <mxCell id="1" parent="0" />
        <mxCell id="OcqYXuautquy4_u6suUU-14" style="edgeStyle=orthogonalEdgeStyle;rounded=0;orthogonalLoop=1;jettySize=auto;html=1;" edge="1" parent="1" source="OcqYXuautquy4_u6suUU-2" target="OcqYXuautquy4_u6suUU-12">
          <mxGeometry relative="1" as="geometry" />
        </mxCell>
        <mxCell id="OcqYXuautquy4_u6suUU-2" value="&lt;div&gt;Incoming&lt;/div&gt;&lt;div&gt;network traffic&lt;/div&gt;" style="image;aspect=fixed;html=1;points=[];align=center;fontSize=12;image=img/lib/azure2/networking/Public_IP_Prefixes.svg;" vertex="1" parent="1">
          <mxGeometry x="40" y="327.5" width="115.72" height="90" as="geometry" />
        </mxCell>
        <mxCell id="OcqYXuautquy4_u6suUU-11" value="VPC" style="points=[[0,0],[0.25,0],[0.5,0],[0.75,0],[1,0],[1,0.25],[1,0.5],[1,0.75],[1,1],[0.75,1],[0.5,1],[0.25,1],[0,1],[0,0.75],[0,0.5],[0,0.25]];outlineConnect=0;gradientColor=none;html=1;whiteSpace=wrap;fontSize=12;fontStyle=0;container=1;pointerEvents=0;collapsible=0;recursiveResize=0;shape=mxgraph.aws4.group;grIcon=mxgraph.aws4.group_vpc2;strokeColor=#8C4FFF;fillColor=none;verticalAlign=top;align=left;spacingLeft=30;fontColor=#AAB7B8;dashed=0;" vertex="1" parent="1">
          <mxGeometry x="200" y="245" width="290" height="255" as="geometry" />
        </mxCell>
        <mxCell id="OcqYXuautquy4_u6suUU-12" value="Public subnet" style="points=[[0,0],[0.25,0],[0.5,0],[0.75,0],[1,0],[1,0.25],[1,0.5],[1,0.75],[1,1],[0.75,1],[0.5,1],[0.25,1],[0,1],[0,0.75],[0,0.5],[0,0.25]];outlineConnect=0;gradientColor=none;html=1;whiteSpace=wrap;fontSize=12;fontStyle=0;container=1;pointerEvents=0;collapsible=0;recursiveResize=0;shape=mxgraph.aws4.group;grIcon=mxgraph.aws4.group_security_group;grStroke=0;strokeColor=#7AA116;fillColor=#F2F6E8;verticalAlign=top;align=left;spacingLeft=30;fontColor=#248814;dashed=0;" vertex="1" parent="OcqYXuautquy4_u6suUU-11">
          <mxGeometry x="50" y="27.5" width="210" height="200" as="geometry" />
        </mxCell>
        <mxCell id="OcqYXuautquy4_u6suUU-1" value="Route table" style="sketch=0;outlineConnect=0;fontColor=#232F3E;gradientColor=none;fillColor=#8C4FFF;strokeColor=none;dashed=0;verticalLabelPosition=bottom;verticalAlign=top;align=center;html=1;fontSize=12;fontStyle=0;aspect=fixed;pointerEvents=1;shape=mxgraph.aws4.route_table;" vertex="1" parent="OcqYXuautquy4_u6suUU-12">
          <mxGeometry x="150" y="13.5" width="48.75" height="47.5" as="geometry" />
        </mxCell>
        <mxCell id="OcqYXuautquy4_u6suUU-15" value="Virtual machine" style="image;sketch=0;aspect=fixed;html=1;points=[];align=center;fontSize=12;image=img/lib/mscae/Virtual_Machine.svg;labelBackgroundColor=light-dark(#f2f6e8, #ededed);" vertex="1" parent="OcqYXuautquy4_u6suUU-12">
          <mxGeometry x="60" y="71.25" width="62.5" height="57.5" as="geometry" />
        </mxCell>
        <mxCell id="OcqYXuautquy4_u6suUU-8" style="edgeStyle=orthogonalEdgeStyle;rounded=0;orthogonalLoop=1;jettySize=auto;html=1;" edge="1" parent="1" source="OcqYXuautquy4_u6suUU-5" target="OcqYXuautquy4_u6suUU-17">
          <mxGeometry relative="1" as="geometry">
            <mxPoint x="680" y="372.5" as="targetPoint" />
          </mxGeometry>
        </mxCell>
        <mxCell id="OcqYXuautquy4_u6suUU-5" value="&lt;div&gt;Internet gateway&lt;/div&gt;&lt;div&gt;(TARGET)&lt;/div&gt;" style="sketch=0;outlineConnect=0;fontColor=#232F3E;gradientColor=none;fillColor=#8C4FFF;strokeColor=none;dashed=0;verticalLabelPosition=bottom;verticalAlign=top;align=center;html=1;fontSize=12;fontStyle=0;aspect=fixed;pointerEvents=1;shape=mxgraph.aws4.internet_gateway;" vertex="1" parent="1">
          <mxGeometry x="520" y="333.5" width="78" height="78" as="geometry" />
        </mxCell>
        <mxCell id="OcqYXuautquy4_u6suUU-16" style="edgeStyle=orthogonalEdgeStyle;rounded=0;orthogonalLoop=1;jettySize=auto;html=1;" edge="1" parent="1" source="OcqYXuautquy4_u6suUU-12" target="OcqYXuautquy4_u6suUU-5">
          <mxGeometry relative="1" as="geometry" />
        </mxCell>
        <mxCell id="OcqYXuautquy4_u6suUU-17" value="&lt;div&gt;Public internet&lt;/div&gt;&lt;div&gt;(DESTINATION)&lt;/div&gt;" style="sketch=0;outlineConnect=0;fontColor=#232F3E;gradientColor=none;fillColor=#232F3D;strokeColor=none;dashed=0;verticalLabelPosition=bottom;verticalAlign=top;align=center;html=1;fontSize=12;fontStyle=0;aspect=fixed;pointerEvents=1;shape=mxgraph.aws4.internet;" vertex="1" parent="1">
          <mxGeometry x="700" y="339.5" width="107.25" height="66" as="geometry" />
        </mxCell>
        <mxCell id="OcqYXuautquy4_u6suUU-39" value="" style="shape=table;startSize=0;container=1;collapsible=0;childLayout=tableLayout;" vertex="1" parent="1">
          <mxGeometry x="520" y="165" width="140" height="80" as="geometry" />
        </mxCell>
        <mxCell id="OcqYXuautquy4_u6suUU-40" value="" style="shape=tableRow;horizontal=0;startSize=0;swimlaneHead=0;swimlaneBody=0;strokeColor=inherit;top=0;left=0;bottom=0;right=0;collapsible=0;dropTarget=0;fillColor=none;points=[[0,0.5],[1,0.5]];portConstraint=eastwest;" vertex="1" parent="OcqYXuautquy4_u6suUU-39">
          <mxGeometry width="140" height="40" as="geometry" />
        </mxCell>
        <mxCell id="OcqYXuautquy4_u6suUU-41" value="Destination" style="shape=partialRectangle;html=1;whiteSpace=wrap;connectable=0;strokeColor=#666666;overflow=hidden;fillColor=#f5f5f5;top=0;left=0;bottom=0;right=1;pointerEvents=1;align=center;fontColor=#333333;" vertex="1" parent="OcqYXuautquy4_u6suUU-40">
          <mxGeometry width="70" height="40" as="geometry">
            <mxRectangle width="70" height="40" as="alternateBounds" />
          </mxGeometry>
        </mxCell>
        <mxCell id="OcqYXuautquy4_u6suUU-42" value="Target" style="shape=partialRectangle;html=1;whiteSpace=wrap;connectable=0;strokeColor=#666666;overflow=hidden;fillColor=#f5f5f5;top=0;left=1;bottom=0;right=0;pointerEvents=1;fontColor=#333333;" vertex="1" parent="OcqYXuautquy4_u6suUU-40">
          <mxGeometry x="70" width="70" height="40" as="geometry">
            <mxRectangle width="70" height="40" as="alternateBounds" />
          </mxGeometry>
        </mxCell>
        <mxCell id="OcqYXuautquy4_u6suUU-43" value="" style="shape=tableRow;horizontal=0;startSize=0;swimlaneHead=0;swimlaneBody=0;strokeColor=inherit;top=0;left=0;bottom=0;right=0;collapsible=0;dropTarget=0;fillColor=none;points=[[0,0.5],[1,0.5]];portConstraint=eastwest;" vertex="1" parent="OcqYXuautquy4_u6suUU-39">
          <mxGeometry y="40" width="140" height="40" as="geometry" />
        </mxCell>
        <mxCell id="OcqYXuautquy4_u6suUU-44" value="0.0.0.0/0" style="shape=partialRectangle;html=1;whiteSpace=wrap;connectable=0;strokeColor=inherit;overflow=hidden;fillColor=none;top=0;left=0;bottom=0;right=0;pointerEvents=1;" vertex="1" parent="OcqYXuautquy4_u6suUU-43">
          <mxGeometry width="70" height="40" as="geometry">
            <mxRectangle width="70" height="40" as="alternateBounds" />
          </mxGeometry>
        </mxCell>
        <mxCell id="OcqYXuautquy4_u6suUU-45" value="igw-id" style="shape=partialRectangle;html=1;whiteSpace=wrap;connectable=0;strokeColor=inherit;overflow=hidden;fillColor=none;top=0;left=0;bottom=0;right=0;pointerEvents=1;" vertex="1" parent="OcqYXuautquy4_u6suUU-43">
          <mxGeometry x="70" width="70" height="40" as="geometry">
            <mxRectangle width="70" height="40" as="alternateBounds" />
          </mxGeometry>
        </mxCell>
        <mxCell id="OcqYXuautquy4_u6suUU-46" style="edgeStyle=orthogonalEdgeStyle;rounded=0;orthogonalLoop=1;jettySize=auto;html=1;dashed=1;fillColor=#e1d5e7;strokeColor=#9673a6;" edge="1" parent="1" source="OcqYXuautquy4_u6suUU-1" target="OcqYXuautquy4_u6suUU-40">
          <mxGeometry relative="1" as="geometry" />
        </mxCell>
      </root>
    </mxGraphModel>
  </diagram>
</mxfile>
